<?xml version="1.0" encoding="UTF-8" standalone="no"?>
<svg
   xmlns:dc="http://purl.org/dc/elements/1.1/"
   xmlns:cc="http://creativecommons.org/ns#"
   xmlns:rdf="http://www.w3.org/1999/02/22-rdf-syntax-ns#"
   xmlns:svg="http://www.w3.org/2000/svg"
   xmlns="http://www.w3.org/2000/svg"
   xmlns:sodipodi="http://sodipodi.sourceforge.net/DTD/sodipodi-0.dtd"
   xmlns:inkscape="http://www.inkscape.org/namespaces/inkscape"
   viewBox="0 0 1137.4509 493.73928"
   version="1.1"
   id="svg18"
   sodipodi:docname="hands32p.svg"
   width="1137.4509"
   height="493.73929"
   inkscape:version="0.92.4 5da689c313, 2019-01-14"
   inkscape:export-filename="/home/karol/oc/Project 8/logo/hands3.svg.png"
   inkscape:export-xdpi="42.192307"
   inkscape:export-ydpi="42.192307">
  <metadata
     id="metadata24">
    <rdf:RDF>
      <cc:Work
         rdf:about="">
        <dc:format>image/svg+xml</dc:format>
        <dc:type
           rdf:resource="http://purl.org/dc/dcmitype/StillImage" />
        <dc:title></dc:title>
      </cc:Work>
    </rdf:RDF>
  </metadata>
  <defs
     id="defs22" />
  <sodipodi:namedview
     pagecolor="#ffffff"
     bordercolor="#666666"
     borderopacity="1"
     objecttolerance="10"
     gridtolerance="10"
     guidetolerance="10"
     inkscape:pageopacity="0"
     inkscape:pageshadow="2"
     inkscape:window-width="1920"
     inkscape:window-height="1015"
     id="namedview20"
     showgrid="false"
     fit-margin-top="0"
     fit-margin-left="0"
     fit-margin-right="0"
     fit-margin-bottom="0"
     inkscape:zoom="0.43552375"
     inkscape:cx="386.17836"
     inkscape:cy="198.7053"
     inkscape:window-x="0"
     inkscape:window-y="0"
     inkscape:window-maximized="1"
     inkscape:current-layer="svg18" />
  <flowRoot
     xml:space="preserve"
     id="flowRoot834"
     style="font-style:normal;font-weight:normal;font-size:40px;line-height:1.25;font-family:sans-serif;letter-spacing:0px;word-spacing:0px;fill:#000000;fill-opacity:1;stroke:none"
     transform="translate(254.48232,182.59864)"><flowRegion
       id="flowRegion836"><rect
         id="rect838"
         width="549.94067"
         height="130.3983"
         x="7.5593219"
         y="-170.08475" /></flowRegion><flowPara
       id="flowPara840" /></flowRoot>  <g
     aria-label="Quick Help"
     transform="matrix(3.1088676,0,0,3.1088676,-24.052401,458.07315)"
     style="font-style:normal;font-variant:normal;font-weight:normal;font-stretch:normal;font-size:74.6681366px;line-height:1.25;font-family:'Playfair Display';-inkscape-font-specification:'Playfair Display, Normal';font-variant-ligatures:normal;font-variant-caps:normal;font-variant-numeric:normal;font-feature-settings:normal;text-align:start;letter-spacing:0px;word-spacing:0px;writing-mode:lr-tb;text-anchor:start;fill:#564142;fill-opacity:1;stroke:none"
     id="flowRoot842">
    <path
       d="m 60.751085,-86.638856 q -1.642699,5.674779 -4.704093,8.512168 -3.658738,3.360066 -10.080198,3.360066 -3.434734,0 -6.720132,-1.045354 -3.285398,-1.045354 -8.288163,-3.285398 -5.525443,-2.38938 -9.034845,-3.584071 l -1.792035,-0.522676 q -3.21073,1.120022 -6.197456,1.120022 -3.434734,0 -3.434734,-1.493363 0,-1.568031 4.03208,-1.568031 2.613384,0 5.60011,0.597345 2.38938,-0.672013 5.525442,-2.090708 1.941371,-0.896017 2.912057,-1.269358 -6.346791,-0.597345 -11.050884,-3.957411 -4.629424,-3.360066 -7.242809,-9.184185 -2.5387169,-5.89878 -2.5387169,-13.73893 0,-8.2135 2.9867259,-14.56029 3.061393,-6.34679 8.437499,-9.85619 5.450774,-3.50941 12.320243,-3.50941 7.093473,0 12.39491,3.21073 5.376106,3.21073 8.288163,9.33352 2.986726,6.04812 2.986726,14.48562 0,7.76549 -2.688053,13.88827 -2.688053,6.048122 -7.541482,9.70686 -4.853429,3.584071 -11.125552,4.181416 v 0.07467 q -1.792035,0.224004 -3.136062,0.597345 -1.269358,0.448009 -3.434734,1.344027 -2.688053,1.19469 -4.480088,1.717367 8.288163,1.642699 14.037609,2.613385 5.824115,0.970685 9.63219,0.970685 5.301438,0 8.362831,-1.568031 3.136062,-1.493362 4.853429,-4.928097 z M 15.203522,-115.08742 q 0,7.76549 2.165376,13.66427 2.240044,5.898786 5.973451,9.109516 3.733406,3.21073 8.362831,3.21073 4.778761,0 8.362831,-3.285398 3.658739,-3.360066 5.600111,-9.333518 2.016039,-5.97345 2.016039,-13.66427 0,-7.76548 -2.240044,-13.66427 -2.165376,-5.89878 -5.898783,-9.10951 -3.733407,-3.21073 -8.362831,-3.21073 -4.778761,0 -8.437499,3.36007 -3.584071,3.28539 -5.600111,9.25885 -1.941371,5.97345 -1.941371,13.66426 z"
       style="font-style:normal;font-variant:normal;font-weight:normal;font-stretch:normal;font-size:74.6681366px;font-family:'Playfair Display';-inkscape-font-specification:'Playfair Display, Normal';font-variant-ligatures:normal;font-variant-caps:normal;font-variant-numeric:normal;font-feature-settings:normal;text-align:start;writing-mode:lr-tb;text-anchor:start;fill:#564142;fill-opacity:1"
       id="path923" />
    <path
       d="m 95.17304,-96.86839 q 0,3.434734 1.269358,5.002765 1.269358,1.568031 4.405422,1.568031 v 1.56803 q -2.314714,-0.224004 -4.629426,-0.224004 -4.704093,0 -7.765487,1.045354 v -8.81084 q -1.792035,4.629424 -5.077433,6.7948 -3.285398,2.165376 -7.168141,2.165376 -5.077433,0 -7.765486,-2.837389 -1.344027,-1.493363 -1.941372,-3.808075 -0.522677,-2.314712 -0.522677,-5.973448 v -18.74171 q 0,-3.43473 -1.269358,-5.00276 -1.269358,-1.56803 -4.40542,-1.56803 v -1.56803 q 2.314712,0.224 4.629424,0.224 4.704093,0 7.765487,-1.04535 v 29.344576 q 0,2.837389 0.298672,4.629425 0.373341,1.717367 1.568031,2.837389 1.269358,1.120022 3.808075,1.120022 2.837389,0 5.152101,-1.792035 2.314713,-1.792036 3.584071,-4.853429 1.344026,-3.136062 1.344026,-6.869468 v -15.45631 q 0,-3.43473 -1.269358,-5.00276 -1.269358,-1.56803 -4.40542,-1.56803 v -1.56803 q 2.314712,0.224 4.629425,0.224 4.704092,0 7.765486,-1.04535 z"
       style="font-style:normal;font-variant:normal;font-weight:normal;font-stretch:normal;font-size:74.6681366px;font-family:'Playfair Display';-inkscape-font-specification:'Playfair Display, Normal';font-variant-ligatures:normal;font-variant-caps:normal;font-variant-numeric:normal;font-feature-settings:normal;text-align:start;writing-mode:lr-tb;text-anchor:start;fill:#564142;fill-opacity:1"
       id="path925" />
    <path
       d="m 113.16801,-145.92536 q 1.94138,0 3.36007,1.4187 1.4187,1.41869 1.4187,3.36006 0,1.94138 -1.4187,3.36007 -1.41869,1.4187 -3.36007,1.4187 -1.94137,0 -3.36006,-1.4187 -1.4187,-1.41869 -1.4187,-3.36007 0,-1.94137 1.4187,-3.36006 1.41869,-1.4187 3.36006,-1.4187 z m 3.88275,50.176992 q 0,3.061393 1.26936,4.256083 1.26935,1.120022 4.40542,1.120022 v 1.568031 q -6.86947,-0.298672 -9.03485,-0.298672 -2.16537,0 -9.03484,0.298672 v -1.568031 q 3.13606,0 4.40542,-1.120022 1.26936,-1.19469 1.26936,-4.256083 V -119.1195 q 0,-3.43473 -1.26936,-5.00276 -1.26936,-1.56803 -4.40542,-1.56803 v -1.56803 q 2.38938,0.224 4.62942,0.224 4.70409,0 7.76549,-1.04535 z"
       style="font-style:normal;font-variant:normal;font-weight:normal;font-stretch:normal;font-size:74.6681366px;font-family:'Playfair Display';-inkscape-font-specification:'Playfair Display, Normal';font-variant-ligatures:normal;font-variant-caps:normal;font-variant-numeric:normal;font-feature-settings:normal;text-align:start;writing-mode:lr-tb;text-anchor:start;fill:#564142;fill-opacity:1"
       id="path927" />
    <path
       d="m 145.20059,-128.30368 q 5.00276,0 8.6615,2.38938 3.50941,2.31472 3.50941,5.74945 0,1.94137 -1.12003,3.06139 -1.12002,1.12003 -2.83739,1.12003 -1.71736,0 -2.91205,-0.97069 -1.19469,-1.04535 -1.19469,-2.76272 0,-1.56803 0.89601,-2.61339 0.89602,-1.12002 2.24005,-1.49336 -0.74668,-1.34402 -2.68805,-2.24004 -1.86671,-0.89602 -4.03208,-0.89602 -2.76272,0 -5.15211,1.79204 -2.38938,1.71736 -3.95741,5.82411 -1.56803,4.03208 -1.56803,10.67754 0,9.258853 2.98673,13.514937 2.98672,4.181415 7.76548,4.181415 3.21073,0 6.04812,-1.866703 2.91206,-1.866704 4.77876,-5.824115 l 1.4187,0.522677 q -1.26936,4.256084 -4.77876,7.317478 -3.43474,3.061393 -8.96018,3.061393 -4.62942,0 -8.4375,-2.38938 -3.7334,-2.389381 -5.89878,-6.869469 -2.16538,-4.554753 -2.16538,-10.528203 0,-6.04812 2.16538,-10.75222 2.24004,-4.70409 6.19745,-7.31747 3.95742,-2.68806 9.03485,-2.68806 z"
       style="font-style:normal;font-variant:normal;font-weight:normal;font-stretch:normal;font-size:74.6681366px;font-family:'Playfair Display';-inkscape-font-specification:'Playfair Display, Normal';font-variant-ligatures:normal;font-variant-caps:normal;font-variant-numeric:normal;font-feature-settings:normal;text-align:start;writing-mode:lr-tb;text-anchor:start;fill:#564142;fill-opacity:1"
       id="path929" />
    <path
       d="m 195.97478,-94.255006 q 1.4187,1.866704 2.53872,2.762721 1.12002,0.896018 2.68805,1.120022 v 1.568031 q -4.48009,-0.298672 -6.04812,-0.298672 -2.01604,0 -8.28816,0.298672 v -1.568031 q 1.04535,0 1.6427,-0.37334 0.67201,-0.448009 0.67201,-1.045354 0,-0.597345 -0.44801,-1.120022 l -8.58683,-12.544251 q -1.26936,-1.8667 -2.46405,-2.46404 -1.12002,-0.67202 -3.13606,-0.82135 v 12.992252 q 0,3.061393 1.04535,4.256083 1.12002,1.120022 3.88274,1.120022 v 1.568031 q -6.27212,-0.298672 -8.28816,-0.298672 -2.16538,0 -9.03484,0.298672 v -1.568031 q 3.13606,0 4.40542,-1.120022 1.26935,-1.19469 1.26935,-4.256083 v -42.635502 q 0,-3.43474 -1.26935,-5.00277 -1.26936,-1.56803 -4.40542,-1.56803 v -1.56803 q 2.38938,0.224 4.62942,0.224 4.70409,0 7.76549,-1.04535 v 37.03539 q 2.16537,-0.29867 3.58407,-0.97068 1.49336,-0.74668 2.83739,-2.09071 l 5.52544,-5.74945 q 2.38938,-2.46404 2.38938,-4.10674 0,-1.26936 -1.56803,-1.86671 -1.49336,-0.67201 -3.95741,-0.67201 v -1.49336 q 5.22677,0.29867 8.4375,0.29867 3.5094,0 6.49612,-0.29867 v 1.49336 q -3.65873,0.29867 -6.72013,3.5094 l -9.10951,9.55752 z"
       style="font-style:normal;font-variant:normal;font-weight:normal;font-stretch:normal;font-size:74.6681366px;font-family:'Playfair Display';-inkscape-font-specification:'Playfair Display, Normal';font-variant-ligatures:normal;font-variant-caps:normal;font-variant-numeric:normal;font-feature-settings:normal;text-align:start;writing-mode:lr-tb;text-anchor:start;fill:#564142;fill-opacity:1"
       id="path931" />
    <path
       d="m 272.80807,-140.17591 q -2.68806,0.14934 -3.95741,0.59735 -1.19469,0.448 -1.6427,1.71736 -0.44801,1.26936 -0.44801,4.10675 v 37.035396 q 0,2.837389 0.44801,4.106747 0.44801,1.269359 1.6427,1.717367 1.26935,0.448009 3.95741,0.597346 v 1.493362 q -3.13606,-0.224004 -9.55752,-0.224004 -6.04812,0 -9.48286,0.224004 v -1.493362 q 2.68805,-0.149337 3.88275,-0.597346 1.26935,-0.448008 1.71736,-1.717367 0.44801,-1.269358 0.44801,-4.106747 v -17.920356 h -24.26714 v 17.920356 q 0,2.837389 0.44801,4.106747 0.448,1.269359 1.64269,1.717367 1.26936,0.448009 3.95742,0.597346 v 1.493362 q -3.43474,-0.224004 -9.48286,-0.224004 -6.42146,0 -9.55752,0.224004 v -1.493362 q 2.68805,-0.149337 3.88274,-0.597346 1.26936,-0.448008 1.71737,-1.717367 0.44801,-1.269358 0.44801,-4.106747 v -37.035396 q 0,-2.83739 -0.44801,-4.10675 -0.44801,-1.26936 -1.71737,-1.71736 -1.19469,-0.44801 -3.88274,-0.59735 v -1.49336 q 3.13606,0.224 9.55752,0.224 5.97345,0 9.48286,-0.224 v 1.49336 q -2.68806,0.14934 -3.95742,0.59735 -1.19469,0.448 -1.64269,1.71736 -0.44801,1.26936 -0.44801,4.10675 v 17.62168 h 24.26714 v -17.62168 q 0,-2.83739 -0.44801,-4.10675 -0.44801,-1.26936 -1.71736,-1.71736 -1.1947,-0.44801 -3.88275,-0.59735 v -1.49336 q 3.43474,0.224 9.48286,0.224 6.42146,0 9.55752,-0.224 z"
       style="font-style:normal;font-variant:normal;font-weight:normal;font-stretch:normal;font-size:74.6681366px;font-family:'Playfair Display';-inkscape-font-specification:'Playfair Display, Normal';font-variant-ligatures:normal;font-variant-caps:normal;font-variant-numeric:normal;font-feature-settings:normal;text-align:start;writing-mode:lr-tb;text-anchor:start;fill:#564142;fill-opacity:1"
       id="path933" />
    <path
       d="m 309.17132,-97.764408 q -1.34402,4.106747 -5.07743,7.093473 -3.65874,2.912057 -8.88551,2.912057 -5.30144,0 -9.18418,-2.38938 -3.88274,-2.464049 -5.97345,-6.794801 -2.01604,-4.405421 -2.01604,-10.154871 0,-6.49612 2.09071,-11.27488 2.09071,-4.77876 5.89878,-7.31748 3.80808,-2.61339 8.88551,-2.61339 6.72013,0 10.3042,4.10675 3.65874,4.03208 3.65874,12.32024 h -23.37113 q -0.224,2.09071 -0.224,4.77876 0,4.9281 1.56803,8.586841 1.6427,3.658738 4.25608,5.674778 2.68806,1.941371 5.60011,1.941371 3.58407,0 6.3468,-1.717367 2.76272,-1.717367 4.62942,-5.749446 z m -14.56028,-29.120572 q -3.50941,0 -6.04812,3.43473 -2.53872,3.43474 -3.13606,10.15487 h 16.27765 q 0.14934,-5.82412 -1.71737,-9.70686 -1.79203,-3.88274 -5.3761,-3.88274 z"
       style="font-style:normal;font-variant:normal;font-weight:normal;font-stretch:normal;font-size:74.6681366px;font-family:'Playfair Display';-inkscape-font-specification:'Playfair Display, Normal';font-variant-ligatures:normal;font-variant-caps:normal;font-variant-numeric:normal;font-feature-settings:normal;text-align:start;writing-mode:lr-tb;text-anchor:start;fill:#564142;fill-opacity:1"
       id="path935" />
    <path
       d="m 326.41957,-95.748368 q 0,3.061393 1.26936,4.256083 1.26935,1.120022 4.40542,1.120022 v 1.568031 q -6.86947,-0.298672 -9.03485,-0.298672 -2.16537,0 -9.03484,0.298672 v -1.568031 q 3.13606,0 4.40542,-1.120022 1.26936,-1.19469 1.26936,-4.256083 v -42.635502 q 0,-3.43474 -1.26936,-5.00277 -1.26936,-1.56803 -4.40542,-1.56803 v -1.56803 q 2.31471,0.224 4.62942,0.224 4.70409,0 7.76549,-1.04535 z"
       style="font-style:normal;font-variant:normal;font-weight:normal;font-stretch:normal;font-size:74.6681366px;font-family:'Playfair Display';-inkscape-font-specification:'Playfair Display, Normal';font-variant-ligatures:normal;font-variant-caps:normal;font-variant-numeric:normal;font-feature-settings:normal;text-align:start;writing-mode:lr-tb;text-anchor:start;fill:#564142;fill-opacity:1"
       id="path937" />
    <path
       d="m 359.72151,-128.30368 q 3.95741,0 7.09347,2.16538 3.21073,2.16538 5.00277,6.34679 1.79203,4.18142 1.79203,10.00553 0,5.74945 -1.8667,10.752214 -1.79203,5.002765 -5.67478,8.138826 -3.80807,3.136062 -9.55752,3.136062 -2.83739,0 -5.1521,-1.120022 -2.31471,-1.120022 -3.58407,-2.912057 v 9.557521 q 0,3.061394 1.79203,4.181416 1.79204,1.19469 5.37611,1.19469 v 1.568031 l -1.71737,-0.07467 q -6.94413,-0.224005 -9.03484,-0.224005 -1.79204,0 -8.06416,0.298673 v -1.568031 q 2.76272,0 3.80807,-1.045354 1.12003,-0.970686 1.12003,-3.58407 V -119.1195 q 0,-3.43473 -1.26936,-5.00276 -1.26936,-1.56803 -4.40542,-1.56803 v -1.56803 q 2.31471,0.224 4.62942,0.224 4.7041,0 7.76549,-1.04535 v 7.91482 q 1.6427,-3.88274 4.77876,-5.97345 3.13606,-2.16538 7.16814,-2.16538 z m -4.03208,38.827435 q 10.67755,0 10.67755,-19.264375 0,-17.32301 -8.66151,-17.32301 -3.36006,0 -6.04812,2.46405 -2.68805,2.38938 -3.88274,6.94413 v 22.400444 q 1.04535,2.165376 3.06139,3.509403 2.01604,1.269358 4.85343,1.269358 z"
       style="font-style:normal;font-variant:normal;font-weight:normal;font-stretch:normal;font-size:74.6681366px;font-family:'Playfair Display';-inkscape-font-specification:'Playfair Display, Normal';font-variant-ligatures:normal;font-variant-caps:normal;font-variant-numeric:normal;font-feature-settings:normal;text-align:start;writing-mode:lr-tb;text-anchor:start;fill:#564142;fill-opacity:1"
       id="path939" />
  </g>
  <path
     inkscape:export-ydpi="523.81494"
     inkscape:export-xdpi="523.81494"
     inkscape:connector-curvature="0"
     id="path2-1"
     d="m 785.4442,341.13984 a 7.1061479,7.1061479 0 0 0 -8.69319,-5.04063 l -53.8646,14.326 a 7.1014105,7.1014105 0 0 0 -3.38252,2.03235 l -31.90187,34.34639 c -0.5685,-0.43585 -1.07067,-0.94275 -1.68179,-1.33596 L 574.09788,312.99475 a 19.432946,19.432946 0 0 0 -19.53717,-0.91432 l -51.97437,27.17391 a 5.2253875,5.2253875 0 0 1 -5.53805,-0.46427 5.1638009,5.1638009 0 0 1 -2.00867,-3.44411 c -0.18476,-1.37859 0.18002,-2.74771 1.03276,-3.85153 L 520.527,299.67784 a 27.548167,27.548167 0 0 1 16.82736,-10.31339 l 28.69936,-5.32962 a 122.30155,122.30155 0 0 1 47.63488,0.55428 l 30.50906,6.40501 a 19.361884,19.361884 0 0 0 11.24193,-0.99486 7.1061479,7.1061479 0 0 0 1.51124,-0.82905 l 60.65334,-43.90179 a 7.1061479,7.1061479 0 0 0 -8.3284,-11.51195 l -59.80534,43.28118 a 5.1353763,5.1353763 0 0 1 -2.3545,0.0474 l -30.51381,-6.40504 a 136.168,136.168 0 0 0 -53.15399,-0.61588 l -28.68988,5.32962 a 41.698877,41.698877 0 0 0 -20.81628,10.51236 l -26.71911,-4.24474 a 5.296449,5.296449 0 0 1 -1.05171,-0.28425 l -58.41254,-47.38853 a 7.1065429,7.1065429 0 1 0 -8.95374,11.03822 l 59.09472,47.94281 c 0.36952,0.29846 0.7722,0.56376 1.19857,0.78641 1.85233,0.96171 3.83732,1.61074 5.90284,1.94235 l 18.40493,2.923 -18.60864,24.20828 a 19.262398,19.262398 0 0 0 -3.8468,14.41127 19.267136,19.267136 0 0 0 7.51831,12.88107 19.48032,19.48032 0 0 0 20.69311,1.72443 l 51.97436,-27.17391 a 5.2111751,5.2111751 0 0 1 5.22538,0.24635 l 111.82709,72.47796 a 10.896093,10.896093 0 0 1 4.77533,6.95929 c 0.60165,2.88984 0.0426,5.82705 -1.5823,8.29051 a 10.952943,10.952943 0 0 1 -14.79027,3.37305 L 606.11345,379.8257 a 7.1070287,7.1070287 0 0 0 -7.29565,12.19889 l 48.35971,28.94097 c 0.009,0 0.0142,0.009 0.019,0.0142 l 5.82705,3.48202 c 1.64388,0.98538 2.7856,2.55821 3.21198,4.42476 0.42636,1.87128 0.0853,3.78048 -0.96645,5.38173 a 12.956877,12.956877 0 0 1 -16.91736,4.23052 l -47.27961,-25.77165 a 7.1061722,7.1061722 0 1 0 -6.80295,12.4784 l 34.10004,18.58495 8.4421,5.15432 c 1.57757,0.96644 2.63875,2.49189 2.99406,4.31107 0.35057,1.81443 -0.0616,3.6336 -1.16541,5.11642 a 5.7701921,5.7701921 0 0 0 -0.28425,0.41689 11.597233,11.597233 0 0 1 -15.06504,4.10736 L 576.68454,444.3116 a 7.1071382,7.1071382 0 0 0 -6.43817,12.67263 l 30.45695,15.45825 a 30.954381,30.954381 0 0 1 -21.1621,4.35843 l -27.51028,-4.2021 1.95656,-2.80456 a 21.095784,21.095784 0 0 0 -3.79468,-28.13087 l -0.10422,-0.0853 a 20.8826,20.8826 0 0 0 -8.90637,-4.19736 c 2.544,-8.71687 -0.13739,-18.49494 -7.50883,-24.4641 a 23.094981,23.094981 0 0 0 -13.70066,-5.06905 23.085506,23.085506 0 0 0 -0.35057,-5.6565 22.900746,22.900746 0 0 0 -10.04335,-14.81395 c -10.34656,-6.74136 -24.37883,-3.97944 -31.45655,6.10182 a 22.919696,22.919696 0 0 0 -35.02857,-3.88469 l -25.92323,-34.18532 a 7.1061479,7.1061479 0 0 0 -3.51518,-2.47767 l -52.77025,-16.73735 a 7.1061479,7.1061479 0 0 0 -4.29685,13.54432 l 50.61946,16.0599 27.06021,35.68233 -7.53252,10.76345 a 22.891271,22.891271 0 0 0 5.86021,31.94924 22.644925,22.644925 0 0 0 12.83844,4.21631 c -0.005,7.28617 3.392,14.47759 9.7449,18.94973 a 22.943383,22.943383 0 0 0 17.43375,3.85627 c 1.29332,-0.23688 2.52031,-0.62534 3.72361,-1.06119 1.97078,5.11643 5.60912,9.46539 10.49342,12.09466 3.48201,1.87603 7.24827,2.77614 10.96242,2.77614 a 23.071294,23.071294 0 0 0 10.11915,-2.36871 20.8447,20.8447 0 0 0 10.44604,9.47486 20.816276,20.816276 0 0 0 24.54937,-6.55187 l 34.48851,5.27276 a 45.043503,45.043503 0 0 0 38.75219,-12.60156 c 0.81484,0.0805 1.62968,0.14211 2.44451,0.14211 a 25.747943,25.747943 0 0 0 21.60744,-11.74882 20.71679,20.71679 0 0 0 3.88468,-12.42629 c 0.10423,0 0.20845,0.019 0.31267,0.019 8.88269,0 17.59483,-4.33474 22.73968,-12.15625 a 20.939449,20.939449 0 0 0 3.36357,-10.38918 c 0.57324,0.0379 1.1512,0.11369 1.72917,0.11369 a 25.122601,25.122601 0 0 0 21.01524,-11.3272 25.013641,25.013641 0 0 0 3.62888,-19.03026 c -0.19897,-0.97117 -0.56849,-1.87128 -0.87643,-2.79509 l 32.52721,-35.01909 51.88436,-13.80014 a 7.1061479,7.1061479 0 0 0 5.04062,-8.69319 z m -333.13621,90.07753 a 8.5273773,8.5273773 0 0 1 -11.46933,1.39755 l -0.42637,-0.30321 a 8.622126,8.622126 0 0 1 -2.02762,-11.91937 l 13.53011,-19.35241 a 8.6079135,8.6079135 0 0 1 11.58302,-2.39241 c 2.17921,1.3407 3.56254,3.30673 4.05998,5.62334 a 8.4800033,8.4800033 0 0 1 -1.01855,6.11129 z m 26.44433,17.62324 c -0.38372,0.55903 -0.63007,1.1891 -0.96643,1.78128 l -1.9613,2.88036 a 8.8116234,8.8116234 0 0 1 -5.7465,3.72836 c -2.33555,0.42636 -4.72796,-0.0948 -6.68925,-1.4686 a 8.9158471,8.9158471 0 0 1 -2.24555,-12.27943 l 2.89931,-4.24947 c 0.1895,-0.25582 0.4311,-0.46428 0.61587,-0.73431 4.19736,-6.13971 9.16219,-13.44009 13.36429,-19.63192 0.10896,-0.16107 0.17055,-0.34109 0.27477,-0.50216 l 11.36984,-16.64734 a 8.925322,8.925322 0 0 1 12.16099,-2.4303 c 2.0134,1.31226 3.38726,3.33515 3.85627,5.69439 0.47374,2.35451 -0.0142,4.75165 -1.36912,6.73663 l -3.90364,5.72756 c -0.0853,0.11843 -0.19898,0.20844 -0.27952,0.32688 l -21.38003,31.06334 z m 30.38589,11.90044 c -0.34583,0.49743 -0.54954,1.05171 -0.85273,1.57282 l -3.19303,4.64269 a 8.8589982,8.8589982 0 0 1 -11.51197,2.78561 8.7642495,8.7642495 0 0 1 -4.42949,-5.7323 8.7452995,8.7452995 0 0 1 0.39321,-5.40067 l 22.57386,-33.10043 a 8.7452995,8.7452995 0 0 1 7.06351,-3.52466 c 2.01341,0 3.95102,0.68693 5.54753,1.98025 3.57677,2.88984 4.33476,8.13417 1.72917,11.92412 l -6.42396,9.34221 c -0.1516,0.19897 -0.34583,0.36005 -0.48796,0.5685 z m 33.19046,0.92854 -10.41288,14.93238 a 6.7413657,6.7413657 0 0 1 -8.13891,2.38766 6.7413657,6.7413657 0 0 1 -3.72362,-8.70265 l 11.66356,-16.96001 a 6.6797791,6.6797791 0 0 1 4.12156,-2.24555 c 1.86655,-0.26056 3.69994,0.24635 5.16854,1.43071 l 0.0663,0.0521 c 2.70508,2.22659 3.25936,6.22972 1.25542,9.10535 z"
     style="fill:#564142;fill-opacity:1;stroke-width:4.737432" />
</svg>
